<!-- Generator: Adobe Illustrator 21.1.0, SVG Export Plug-In  -->
<svg version="1.1"
	 xmlns="http://www.w3.org/2000/svg" xmlns:xlink="http://www.w3.org/1999/xlink" xmlns:a="http://ns.adobe.com/AdobeSVGViewerExtensions/3.0/"
	 x="0px" y="0px" width="30.3px" height="36.1px" viewBox="0 0 30.3 36.1" style="enable-background:new 0 0 30.3 36.1;"
	 xml:space="preserve">
<style type="text/css">
	.st0{fill:#D91E48;}
</style>
<defs>
</defs>
<g>
	<path class="st0" d="M15.1,0C6.8,0,0,6.8,0,15.1c0,8.2,14,20.2,14.6,20.8c0.1,0.1,0.3,0.2,0.5,0.2c0.2,0,0.4-0.1,0.5-0.2
		c0.6-0.5,14.6-12.6,14.6-20.8C30.3,6.8,23.5,0,15.1,0z M15.1,22.1c-3.8,0-7-3.1-7-7s3.1-7,7-7c3.8,0,7,3.2,7,7S19,22.1,15.1,22.1z"
		/>
</g>
</svg>
