<?xml version="1.0" encoding="utf-8"?><svg xmlns="http://www.w3.org/2000/svg" xmlns:xlink="http://www.w3.org/1999/xlink"><symbol viewBox="-396 399 6 3" id="arr-down" xmlns="http://www.w3.org/2000/svg"><path d="M-390 399l-3 3-3-3"/></symbol><symbol viewBox="0 0 11.4 7.1" id="arr-down-1" xmlns="http://www.w3.org/2000/svg"><path d="M5.7 7.1L0 1.4 1.4 0l4.3 4.3L10 0l1.4 1.4z"/></symbol><symbol viewBox="-390 388 17.3 25" id="binotel_phone" xmlns="http://www.w3.org/2000/svg"><path d="M-376.2 388c-.8 0-2-.1-2.1.6-.3 1.9-1.9 3.8-.1 5.7.4.4.2.9 0 1.4-1.1 3-2.6 5.7-4.7 8.2-.7.8-1.4 1.4-2.5.8-.3-.2-.7-.2-1 .1-1.2 1.3-2.9 2.4-3.4 4.1-.3 1.3 1.3 2.2 1.9 3.3l.1.1c.7.8 1.3.9 2.2.2 6.7-5.3 11.4-11.9 12.8-20.6.6-3.4.3-3.8-3.2-3.9z"/></symbol><symbol viewBox="0 0 145.5 262.1" id="digit__1" xmlns="http://www.w3.org/2000/svg"><path d="M145.5 262.1H.7v-14.7c3.5-.2 9.1-.8 16.8-1.8 7.7-.9 12.9-1.9 15.7-2.8 3.5-1.2 6.3-3.2 8.2-6 2-2.8 3-6.7 3-11.6V50.6H0V30.9h9.7c10.2 0 19-1.1 26.4-3.3 7.4-2.2 13.6-4.9 18.5-8.1 5-3.3 9.2-6.7 12.4-10.2 3.2-3.5 5.8-6.6 7.6-9.3h30.9c-.4 7.6-.7 16.5-1.1 26.7s-.5 19.3-.5 27.4v169.3c0 4.2.9 7.9 2.7 11 1.8 3.1 4.4 5.5 7.8 7.1 3 1.4 8.1 2.7 15.3 3.9 7.1 1.2 12.4 1.9 15.8 2.1v14.6z"/></symbol><symbol viewBox="0 0 370 262" id="digit__10" xmlns="http://www.w3.org/2000/svg"><path d="M338.6 40.9c10.7 12.2 18.6 26.1 23.7 41.8 5.1 15.6 7.7 31.9 7.7 48.6 0 20-3.2 38-9.6 54.1s-15.2 29.7-26.3 40.9c-11.7 11.6-25.2 20.5-40.7 26.6-15.4 6-33.2 9.1-53.3 9.1-21.2 0-40-3.6-56.2-10.8s-29.8-16.6-40.6-28.4c-10.7-11.6-18.8-25.3-24.4-41s-8.3-32.6-8.3-50.6c0-17.9 2.6-34.4 7.9-49.7 5.3-15.3 13.4-29.1 24.4-41.4 10.7-12.1 24.3-21.7 40.7-29C200.1 3.9 219 .2 240.3.2c22.1 0 41.3 3.7 57.8 11.2 16.4 7.6 29.9 17.4 40.5 29.5zm-59.5 170.5c4.1-10.2 7-21.6 8.8-34.2 1.8-12.6 2.6-27.9 2.6-45.9 0-16.2-.8-30.8-2.4-43.7-1.6-13-4.3-24.5-8.1-34.6-3.9-10.4-9.1-18.4-15.6-24s-14.4-8.5-23.8-8.5c-9.6 0-17.6 2.8-24 8.4-6.5 5.6-11.7 13.5-15.8 23.7-3.7 9.3-6.3 20.7-8 34.2s-2.5 28.3-2.5 44.5c0 16.9.7 31.4 2.2 43.3s4.2 23.4 8.1 34.3c3.5 9.9 8.6 17.9 15.2 24 6.6 6.1 14.8 9.2 24.5 9.2 9 0 16.8-2.7 23.4-8.2 6.4-5.6 11.6-13 15.4-22.5z"/><path d="M145.3 261.7H.7V247c3.5-.2 9.1-.8 16.7-1.8 7.7-.9 12.9-1.9 15.7-2.8 3.5-1.2 6.2-3.2 8.2-6s3-6.7 3-11.6V50.5H0V30.9h9.6c10.2 0 19-1.1 26.4-3.3 7.4-2.2 13.6-4.9 18.5-8.1 5-3.3 9.1-6.7 12.4-10.2 3.2-3.5 5.8-6.6 7.6-9.3h30.8c-.4 7.6-.7 16.5-1.1 26.6-.4 10.2-.5 19.3-.5 27.3v169c0 4.2.9 7.9 2.7 11 1.8 3.1 4.4 5.5 7.8 7.1 3 1.4 8.1 2.7 15.2 3.9 7.1 1.2 12.4 1.9 15.8 2.1l.1 14.7z"/></symbol><symbol viewBox="0 0 196.2 262" id="digit__2" xmlns="http://www.w3.org/2000/svg"><path d="M196.2 262H0v-37.3c8.7-29.5 87.5-95.2 94.9-100.5s13.2-10.8 17.4-16.6c4.2-5.4 7.2-11.2 9.1-17.5 1.8-6.3 2.7-13.4 2.7-21.2 0-17.4-3.5-30.1-10.6-38.1-7-8-16.4-11.9-28-11.9-3.6 0-7.1.3-10.3.9s-6.6 1.8-10.1 3.4c1.8 6.2 3.4 12.6 5.1 19.1 1.6 6.6 2.5 13.9 2.5 22 0 9.7-3 17.5-8.9 23.3-6 5.8-13.6 8.6-22.8 8.6-8.8 0-15.8-3.4-21-10.1s-7.8-14.9-7.8-24.5c0-16.7 8.3-31.2 24.9-43.4C53.6 6.1 73.8 0 97.7 0c27.6 0 49.9 5.6 66.9 16.7s25.5 29 25.5 53.7c0 12.8-2.3 23.1-6.8 30.9s-11.1 14.8-19.9 20.6c-60.5 39.4-115.3 78.3-119.7 97.7v2.3h151.5l1 40.1z"/></symbol><symbol viewBox="0 0 199.2 262.2" id="digit__3" xmlns="http://www.w3.org/2000/svg"><path d="M174.4 137.2c7.1 4.7 13 11 17.7 18.9s7.1 17.5 7.1 29c0 22.1-10.6 40.5-31.7 55.1-21.2 14.7-48.4 22-81.7 22-23.9 0-44.1-5.1-60.8-15.3S0 224.1 0 209.2c0-8.4 2.7-15.5 8.1-21.3s12.6-8.7 21.5-8.7c9.3 0 17 2.5 23 7.5s9 11.7 9 20.1c0 5.8-1 12.3-3.1 19.4-2.1 7.1-3.7 12.4-4.9 15.9 2.6 1.2 6 2.1 10.1 2.7s9 1 14.5 1c6.9 0 13.6-1.1 20.1-3.4 6.6-2.2 12.3-5.9 17.1-11 5.1-5.3 9-11.6 11.8-18.7 2.8-7.2 4.2-16.6 4.2-28.5 0-6.7-.6-13.1-1.9-19.1-1.2-6-3.5-11.3-6.8-15.8s-7.8-8-13.6-10.5c-5.7-2.5-13-3.8-21.9-3.8H64.7v-21.4h16c14.9 0 25.7-4.4 32.4-13.2 6.7-8.8 10-22.2 10-40.3 0-14.5-3.2-25.4-9.7-32.7-6.4-7.3-15.7-10.9-27.9-10.9-4.6 0-8.6.3-12.1.8-3.4.5-6.9 1.5-10.5 2.9 1.3 4 2.9 9.6 4.8 16.8 1.9 7.2 2.8 13.4 2.8 18.4 0 8.4-2.9 15.1-8.7 20-5.8 5-13.4 7.4-22.7 7.4-8.9 0-15.9-2.9-21.2-8.7C12.6 68.3 10 61.3 10 53c0-14.7 8.5-27.1 25.4-37.5C52.4 5.2 73.7 0 99.3 0c17.7 0 32.4 2.1 44.1 6.2 11.6 4.1 20.8 9.2 27.6 15.2 6.6 5.9 11.2 12.3 13.7 19.1 2.5 6.8 3.8 12.9 3.8 18.3 0 5.2-1.1 11.1-3.3 17.6-2.2 6.6-5.4 12.3-9.7 17.3-5.2 6-12 11.2-20.4 15.6-8.4 4.4-18.2 7.7-29.4 10.1v2.8c7.7.5 16 1.9 24.9 4.3 9 2.6 16.9 6.1 23.8 10.7z"/></symbol><symbol viewBox="0 0 203.8 262" id="digit__4" xmlns="http://www.w3.org/2000/svg"><path d="M203.8 194.5h-26.3V262h-59.6v-67.5H0v-32.8L127.8 0h49.7v157h26.3v37.5zM117.9 157V42.5L27.4 157h90.5z"/></symbol><symbol viewBox="0 0 196.5 262.1" id="digit__5" xmlns="http://www.w3.org/2000/svg"><path d="M164.5 109.3c9.1 6 16.7 14.2 22.8 24.4 6.2 10.2 9.2 22.9 9.2 38 0 26.6-10.3 48.3-30.9 65.1-20.6 16.9-46.9 25.3-78.9 25.3-24.8 0-45.4-5.3-62-15.9C8.3 235.4 0 222.9 0 208.4c0-8.6 2.7-15.8 8.2-21.7 5.5-5.9 12.8-8.9 22-8.9 9.5 0 17.4 2.6 23.5 7.7s9.2 12 9.2 20.6c0 6-1 12.6-3.1 19.7s-3.7 12.6-5.1 16.3c2.9 1.1 6.3 1.9 10.1 2.4 3.9.5 7.5.8 10.9.8 6.9 0 13.6-1.5 20.3-4.6 6.6-3.1 12.3-7.6 17-13.5 5.4-6.8 9.5-14.8 12.3-24s4.2-19.7 4.2-31.4c0-17-4.6-31-13.7-41.9s-21-16.4-35.5-16.4c-11.3 0-20.7 2.3-28.3 6.8-7.5 4.4-14.4 10.4-20.4 17.8l-14-4.7L35.2 0h153.1v50h-140l-7.5 59.8c6.5-4.1 14.9-8 25.2-11.8 10.3-3.7 22.3-5.6 36.2-5.6 10.7 0 21.3 1.2 31.8 3.5 10.5 2.4 20.6 6.8 30.5 13.4z"/></symbol><symbol viewBox="0 0 200.1 262" id="digit__6" xmlns="http://www.w3.org/2000/svg"><path d="M200.1 174.6c0 24.8-9.3 45.6-28 62.3-18.7 16.7-42.5 25.1-71.5 25.1-30.3 0-54.6-9.5-73-28.5S0 189 0 156.9c0-42.8 14.4-78.2 43.3-106.2S111.4 5.8 161.1 0l4 17.4-18.6 3.2c-14.2 3.9-26 9.2-35.5 15.9-9.5 6.7-17.4 14.4-23.6 23.1-6 8.3-10.6 17.7-14 28.2s-6 20.8-7.7 31c10.2-9.1 20.3-15.3 30.3-18.4 10-3.2 20.7-4.7 32.2-4.7 20.1 0 37.1 7.3 51.1 22 13.8 14.5 20.8 33.5 20.8 56.9zm-64.9 4.7c0-18.5-3.2-33.2-9.7-44-6.6-10.9-15.2-16.3-26.1-16.3-7.3 0-13.5 1.2-18.9 3.7-5.3 2.5-10.7 7.6-16.1 15.4 0 .6 0 1.6-.1 3.1s-.1 3.4-.3 5.7c-.1 2.6-.2 5-.3 7.2-.1 2.2-.1 4.1-.1 5.6 0 28.1 3.4 49.6 10.3 64.5 6.8 14.9 15.6 22.4 26.4 22.4 10.4 0 18.8-5.8 25.2-17.5 6.5-11.8 9.7-28.3 9.7-49.8z"/></symbol><symbol viewBox="0 0 184.9 262" id="digit__7" xmlns="http://www.w3.org/2000/svg"><path d="M184.9 20.9L47.8 262H12.6L142.3 47.1H68.9c-10.2 0-18.1.1-23.8.2s-11 1.3-15.8 3.5c-3.9 1.8-7.2 5.8-9.9 12.2-2.7 6.4-4.9 14.2-6.6 23.4H0V0h184.9v20.9z"/></symbol><symbol viewBox="0 0 206 262.1" id="digit__8" xmlns="http://www.w3.org/2000/svg"><path d="M206 186.1c0 21.5-9.6 39.5-28.8 54.1s-45.3 21.9-78.3 21.9c-29.5 0-53.4-6.2-71.6-18.7S0 214.9 0 195.4c0-15.1 4.9-27.4 14.6-37.2 9.7-9.7 25.1-17.1 46.1-22-16.8-7.6-29.5-17.2-38.1-28.7C14 95.9 9.7 83.1 9.7 68.8c0-19.5 9.3-35.8 27.9-49S79.2 0 106.6 0c26.6 0 48.2 5.8 64.7 17.5s24.8 26.1 24.8 43.4c0 13.3-4.5 24.5-13.5 33.5s-22.4 16.2-40.3 21.6c22.4 8.1 38.6 17.9 48.6 29.7C201 157.5 206 171 206 186.1zm-58.6 17.7c0-8.2-1.8-14.9-5.3-20.3s-8.5-10.2-15.1-14.5c-6.5-4.2-14.9-8.5-25-13-10.1-4.4-19.7-8.9-28.8-13.5-3.9 4.6-7.2 11.4-10.2 20.5-2.9 9.1-4.4 18.7-4.4 28.9 0 17.2 4.1 30.6 12.5 40.3 8.3 9.7 19.2 14.5 32.8 14.5 13.6 0 24.2-4 31.9-11.9s11.6-18.3 11.6-31zm-9.8-143.1c0-13.5-3-24.5-9-32.8s-14.3-12.5-25-12.5c-10.1 0-18.5 3.6-25.1 10.7s-10 16.2-10 27.3c0 7.7 1.5 14.1 4.4 19.3 2.9 5.2 7 9.7 12.4 13.6 4.9 3.6 11.8 7.6 20.7 11.9s16.8 8.2 23.8 11.7c2.6-5.8 4.5-13 5.8-21.4 1.3-8.6 2-17.8 2-27.8z"/></symbol><symbol viewBox="0 0 201.2 262" id="digit__9" xmlns="http://www.w3.org/2000/svg"><path d="M201.2 106.1c0 42.8-14.5 77.9-43.4 105.1-29 27.2-68.5 44.2-118.6 50.8l-4.1-17.5 18.7-3.2c14.5-4.1 26.5-9.4 36-15.9s17.4-14 23.5-22.6c6.4-8.8 11.2-18.2 14.5-28.1 3.3-9.9 5.8-20.1 7.4-30.5-10.4 9.1-20.4 15-30.1 17.9s-20.6 4.3-32.7 4.3c-10.1 0-19.6-2-28.4-6s-16.5-9.5-23-16.4c-6.6-7.1-11.7-15.6-15.4-25.5S0 97.8 0 86.1c0-24.8 9.5-45.4 28.6-61.7C47.6 8.2 71.4 0 100 0c31 0 55.6 9.6 73.8 28.8 18.3 19.2 27.4 44.9 27.4 77.3zm-64.4 9.7c0-1.6.1-3.6.2-6s.2-4.6.2-6.9c0-28.2-3.4-49.9-10.2-64.9-6.8-15-15.6-22.5-26.4-22.5-10.5 0-19 5.7-25.5 17.1S65.3 60.5 65.3 82c0 18.8 3.3 33.8 10 45 6.6 11.2 15.4 16.8 26.2 16.8 6.8 0 13.1-1.4 18.9-4.1s11.1-7.8 16.1-15.2c0-.6.1-1.6.2-3.1 0-1.3.1-3.2.1-5.6z"/></symbol><symbol viewBox="0 0 15 15" id="fb" xmlns="http://www.w3.org/2000/svg"><path d="M14.2 0H.8C.4 0 0 .4 0 .8v13.3c0 .5.4.9.8.9H8V9.2H6V6.9h2V5.3c0-1.9 1.2-3 2.9-3 .8 0 1.5.1 1.7.1v2h-1.2c-.9 0-1.1.4-1.1 1.1v1.4h2.2l-.3 2.3h-2V15H14c.5 0 .8-.4.8-.8V.8c.2-.4-.2-.8-.6-.8"/></symbol><symbol viewBox="-389 391.6 19.4 19.4" id="init-slide-ico-1" xmlns="http://www.w3.org/2000/svg"><path d="M-377.7 410.5h-10.8v-18.4h18.4v18.4h-2.9m2.9-5.3h-7.8"/><path d="M-377.9 392.1v5.8h3.9m-14.5 3.4h5.4m0-3.9v7.8"/></symbol><symbol viewBox="0 0 22.5 18.2" id="init-slide-ico-2" xmlns="http://www.w3.org/2000/svg"><path d="M1.9 18.2c-.2 0-.5-.1-.7-.1L1 18c-.4-.2-.7-.5-.9-.9-.2-.4-.2-.9 0-1.3l3.1-7C2.5 8 2.1 7 2.1 6c0-2.4 1.9-4.3 4.3-4.3.3 0 .6 0 .9.1h.1C8.2.6 9.3 0 10.8 0c1.3 0 2.3.7 2.9 2.1v.1h.4l3 1.5c.1 0 .1.1.2.1l5.3 9.5c0 .1.1.2 0 .3 0 .1-.1.2-.2.2l-5.4 3h-.2c-.1 0-.3-.1-.3-.2l-5.3-9.5v-.2l.1-3.3c0-.1.1-.2.2-.3l1.5-.8v-.1C12.5 1.3 11.8.7 10.8.7c-1.1 0-2 .4-2.6 1.3l-.1.1h.1c1.5.7 2.5 2.2 2.5 3.9 0 2.3-1.9 4.3-4.2 4.3l-.5.9h-.2c-.2 0-.4.1-.5.3-.1.2 0 .6.2.7L5 13.3h-.1c-.1 0-.2-.1-.2-.1-.2 0-.4.1-.5.3-.1.2 0 .6.2.7l.1.1-.5 1.1c-.1 0-.2-.1-.2-.1-.2 0-.4.1-.5.3-.1.3 0 .6.2.7h.1l-.4 1c-.2.4-.5.7-.9.9h-.4zM.8 16.1c-.2.5 0 1 .5 1.2l.1.1c.1.1.3.1.4.1.1 0 .2 0 .3-.1.2-.1.4-.3.5-.5l2.9-6.7h-.1c-.6-.1-1.2-.4-1.7-.8h.1l-3 6.7zM12 4l-.1 3 5.1 9.1 4.7-2.7-5.1-9L14 3v.2c.1.4.2.8.2 1.2.3.2.5.5.5.8 0 .5-.4.8-.8.8s-.8-.4-.8-.8c0-.3.1-.5.4-.7 0-.4-.1-.8-.2-1.1v-.1L12 4zM6.4 2.5c-2 0-3.5 1.6-3.5 3.5 0 1 .4 2 1.2 2.7.5.4 1.1.7 1.8.8h.5C8.4 9.6 10 8 10 6c0-1.4-.8-2.7-2.1-3.2h-.1v.1c-.2.2-.2.4-.3.7v.1h.1c.4.2.7.6.7 1.2 0 .7-.6 1.3-1.3 1.3-.7 0-1.3-.6-1.3-1.3 0-.6.4-1.1 1-1.3.1-.4.2-.7.3-1v-.1h-.6zm7 2.3c-.1.1-.2.3-.2.5 0 .4.3.7.7.7s.7-.3.7-.7c0-.2-.1-.4-.2-.5l-.1-.1v.6c0 .2-.2.4-.4.4s-.4-.2-.4-.4v-.6l-.1.1zm-6.8-.9c-.4.2-.6.6-.6 1 0 .6.5 1 1 1s1-.5 1-1c0-.4-.2-.7-.5-.9l-.1-.1v.7c0 .2-.2.4-.4.4s-.4-.2-.4-.4v-.7z"/></symbol><symbol viewBox="0 0 22.8 15.4" id="init-slide-ico-3" xmlns="http://www.w3.org/2000/svg"><path d="M11.4 15.4c-5.4 0-9.9-4.2-10.3-9.5v-.3H.4c-.2 0-.4-.1-.4-.3V.4C0 .2.2 0 .4 0h22.1c.2 0 .4.2.4.4v4.9c0 .2-.2.4-.4.4h-.7V6c-.5 5.2-5 9.4-10.4 9.4zM1.8 5.9c.5 4.9 4.7 8.8 9.6 8.8s9.2-3.8 9.6-8.8v-.3H1.8v.3zm-1.1-1h21.4V.7H.7v4.2z"/><path d="M11.4 12.4c-1.4 0-2.5-1.1-2.5-2.5s1.1-2.5 2.5-2.5 2.6 1 2.6 2.4-1.2 2.6-2.6 2.6zm0-4.4c-1 0-1.8.8-1.8 1.8s.8 1.8 1.8 1.8 1.8-.8 1.8-1.8S12.4 8 11.4 8z"/></symbol><symbol viewBox="0 0 20.4 16.2" id="init-slide-ico-4" xmlns="http://www.w3.org/2000/svg"><path d="M18.1 16.2H2.4c-1.3 0-2.4-1.1-2.4-2.4V4.2c0-1.3 1.1-2.4 2.4-2.4h3.2l.3-.9C6 .4 6.4 0 7 0h6.5c.5 0 1 .4 1.1.9l.3.9h3.2c1.3 0 2.4 1.1 2.4 2.4v9.6c-.1 1.3-1.1 2.4-2.4 2.4zM2.4 2.6c-.9 0-1.6.7-1.6 1.6v9.6c0 .9.7 1.6 1.6 1.6h15.7c.9 0 1.6-.7 1.6-1.6V4.2c0-.9-.7-1.6-1.6-1.6h-3.8l-.4-1.5c0-.2-.2-.3-.4-.3H7c-.2 0-.3.1-.4.3l-.4 1.5H2.4zm7.8 11.2c-2.8 0-5-2.2-5-5s2.2-5 5-5 5 2.2 5 5c0 2.7-2.2 5-5 5zm0-9.2C7.9 4.6 6 6.5 6 8.8c0 2.3 1.9 4.2 4.2 4.2 2.3 0 4.2-1.9 4.2-4.2 0-2.3-1.9-4.2-4.2-4.2zm7.4-.5c-.4 0-.7.3-.7.7 0 .4.3.7.7.7.4 0 .7-.3.7-.7 0-.4-.3-.7-.7-.7zm0 0"/></symbol><symbol viewBox="0 0 15 15" id="inst" xmlns="http://www.w3.org/2000/svg"><path d="M7.5 1.4h3c.7 0 1.1.2 1.4.3.4.1.6.3.9.6.3.3.4.5.6.9.1.3.2.7.3 1.4v6c0 .7-.2 1.1-.3 1.4-.1.4-.3.6-.6.9-.3.3-.5.4-.9.6-.3.1-.7.2-1.4.3h-6c-.7 0-1.1-.2-1.4-.3-.4-.1-.6-.3-.9-.6-.3-.3-.4-.5-.6-.9-.1-.3-.2-.7-.3-1.4v-6c0-.7.2-1.1.3-1.4.2-.5.4-.7.6-1 .3-.2.5-.4.9-.5.3-.1.7-.2 1.4-.3h3m0-1.4H4.4c-.8 0-1.3.2-1.8.3-.5.3-.9.5-1.3 1-.5.4-.7.8-.9 1.3-.2.5-.3 1-.4 1.8v6.2c0 .8.2 1.3.3 1.8.2.5.4.9.9 1.3.4.4.8.7 1.3.9.5.2 1 .3 1.8.3h6.2c.8 0 1.3-.2 1.8-.3.5-.2.9-.4 1.3-.9.4-.4.7-.8.9-1.3.2-.5.3-1 .3-1.8V4.4c0-.8-.2-1.3-.3-1.8-.2-.5-.4-.9-.9-1.3-.4-.4-.8-.7-1.3-.9-.5-.2-1-.3-1.8-.3-.7-.1-1-.1-3-.1"/><path d="M7.5 3.6c-2.1 0-3.9 1.7-3.9 3.9 0 2.1 1.7 3.9 3.9 3.9 2.1 0 3.9-1.7 3.9-3.9 0-2.1-1.8-3.9-3.9-3.9m0 6.4C6.1 10 5 8.9 5 7.5S6.1 5 7.5 5 10 6.1 10 7.5 8.9 10 7.5 10m4.9-6.5c0 .5-.4.9-.9.9s-.9-.4-.9-.9.4-.9.9-.9.9.4.9.9"/></symbol><symbol viewBox="0 0 736.5 258.6" id="logo" xmlns="http://www.w3.org/2000/svg"><path d="M79.2 221.2c-28-4.5-35 30.9-79.2 2.6 17.5-1.8 40.2-31.5 64.3-11.5-10.9-3.8-24.9-1.6-30.9 5.8 19.1-7.3 38.4-3.2 45.8 3.1zm179-164.4c2.6 3.6 12.9 15.8 36.9-.5-10.2 2.8-28.7-8-36.9.5zM147.1 246.6c-6.4-2.1-18.1-2.1-19.2 11.9 4.4-4.6 16.7-2.9 19.2-11.9zm-53.6-17.5c-18.3-9.4-39.7 2.1-37.2 22 14.5-8.2 17.7-24.7 37.2-22zM64.2 70.9C83 63.2 85.2 42.5 84 12.8c-9 23.3-29 32.7-19.8 58.1zM14.6 14.5C19.8 39 65 57.7 48.9 83.3c1 8.4-.2 15.1-2.7 20.9 3.2-20.6-6.5-42.2-25.7-64.9 8 14.4 16.8 34.1 16.5 46.9C16.6 80.4-.7 53.8 14.6 14.5zM185 38.6c3.9-1.6 16.9-13.4 3.8-38.6 1.4 9.8-11.5 28.5-3.8 38.6zm9.9 0c10.5-4.7 25-9.1 34.8-12-10.3-1.1-25.2.8-35 6.9 18.2-22.7 43.7-10 76-31.9-6.7 26.8-44 45.4-75.8 37zm56.5 57.3c32.6-10.5 17.1-33.1-19.8-45.2-17.1-5.6-35.6-8.1-53.7-8.1-72.8 0-138.5 43.3-118.2 129.3C45.6 144.3 47 109 65 83.6 51 98.7 42.4 118 42.4 141.8c0 64.8 59.2 102 135.4 102 9.6 0 18.3-.6 26.3-1.7-2.5-3.2-5-6.9-7.6-11.1-4.8.7-9.5 1.1-14.1 1.1-60.8 0-106.1-40-106.1-93 0-53.9 44.9-86.8 95.9-86.8 32.3-.1 81.2 12.5 79.2 43.6zm-107 45.4c-.1 16.3 0 26.7.3 37.1.2 5.8 1.1 14.8 8.9 14.8.3 1.3.4 4.3.1 5.5-4.9.5-13.3-.7-22.2-.8-9-.1-17.6 1.6-22.6.8-.2-1.2-.3-4.4-.1-5.5 8.6-1.9 9.2-7.9 9.4-15.3.5-14.1.2-25.3.2-39.5-.2-17.4 0-33.1-.2-39.6-.1-4.2.7-14.9-8.5-14.5-.3-1.1-.3-4.2 0-5.5 12.7-.7 15 4.8 15.5 20.2.2 6.3.1 27.2.6 37 1.3-9.8 1.8-30.3 2-37 .4-14.8 6-21.9 25.2-20.2.6 1.3.3 4.4-.2 5.5-6 1.8-7.9 6.1-8 11.3-.2 9.8-.3 33.6-.4 45.7zm42-57.1c-.4-1.7-.5-3.6 0-5.5 6.7-.4 11.1.8 18 .8 11.6-.1 16.4-1.1 22-.8.5 1.8.4 3.9 0 5.5-8.2.2-14 2-22.4 12.2-9.7 11.7-30.6 37.7-42.7 46 27.3-.1 40.2 58 61.4 74-19-30.2-27.3-66.3-45-74.3 16.8 3.4 24 20.5 33.5 37.8 6.7 12.2 13.1 25.3 20.1 37l1.4 2.3c17.7-9 31.6-22 34-36 10.8 8.1 5 32.8-25.9 48.1 7.2 9.5 16.1 17.4 28.3 18.4.4.8.4 4.1-.2 4.9-32.9 4.1-47.5.5-64.3-28.2-19-32.3-33-78.6-55.5-78.9.1-1.3.3-7.3.8-7.6 8.1-4.6 28.2-23 38.8-38.2 9.1-12.9 8.5-16.9-2.3-17.5zm78.3 136c4.6-4.7 14.8-9 25.3-8-2.9-3-12.8-2.7-19 1 13.4-13.5 28.7.2 37.5-2.1-16.6 19.5-29.8 5.6-43.8 9.1zM402.7 76c-5.9-4.8-12.9-6.9-21.2-6.9-17.3 0-30.8 12.4-30.8 30 0 18.4 14.7 27.8 30 27.8 7.9 0 16.9-2.9 22.7-7.8l-2.2-8.6c-5.4 5.2-12.4 7.8-18.7 7.8-10 0-19.3-7.1-19.3-20.1 0-11.2 7.9-20.9 18.3-20.9 5.5 0 11 1.9 16.2 6.7l5-8zm51.8 27.8c0-14.8-9.2-21.3-21.3-21.3-15.7 0-24.5 10.4-24.5 22.8 0 10.5 7.3 21.6 21.4 21.6 15.4 0 24.4-10.7 24.4-23.1zm-33.6.8c0-8.3 4-14.8 10.7-14.8 6.7 0 10.7 6.4 10.7 14.8 0 8.3-4 14.8-10.7 14.8-6.7 0-10.7-6.5-10.7-14.8zm75.8-14.7c8.2.6 12.1 6.4 12.1 15.3 0 8-3.9 14.6-12.1 15.3V89.9zm-10.8 30.6c-8.2-.6-12.1-6.4-12.1-15.3 0-8 3.9-14.6 12.1-15.3v30.6zm-.3-37.5c-15.3.9-23.8 11.4-23.8 23 0 13.5 8.7 20.8 23.8 21.4v12.9h12.5c-.8-4.4-1-8.1-1-13 15.3-.9 23.8-11.4 23.8-23 0-13.5-8.7-20.8-23.8-21.4V71.5c-4.3.4-8.5.8-12.8 1.3.8 3.2 1.3 6.8 1.3 10.2zm120.5 42.8h12.5c-.9-4.5-1-8.4-1-13.5V83.7h-15.2c-15.4 0-20.7 6.1-20.7 14 0 5.4 2.4 10 8.9 12.3l-13.5 15.8H591l11.2-14.1h3.9v14.1zm-4.6-21.4c-6.1 0-8.2-3-8.2-6.7s2.1-6.7 8.2-6.7h4.7v13.3h-4.7v.1zm-59.6-21.7c-4.3.4-8.5.8-12.8 1.3 1.3 6 1.3 10.7 1.3 17.3V126h10.3l14.4-19.2c2-2.6 2.9-4.2 4.4-7.1V126H572c-.9-5-1-8.4-1-13.5V83.9h-10.3c-5.1 6.8-10.1 13.5-15.2 20.3-1.6 2.1-2.4 3.6-3.6 6V82.7zm-176.3 87.5v-23.3h-13.3c1.2 6.6 1.3 11.2 1.3 18.2v37.5h13.1c-1-5.7-1-10-1-16.1v-7.7h6.9l17.1 23.8h14.5L383 174.3l8.5-13.7c2.5-4 4.3-5.5 6.7-5.5 1.9 0 2.9.2 4.4.7l-1.1-8.8c-1.5-.6-3.4-1-5.5-1-6 0-10.7 2.8-15.2 10.3l-8.4 14h-6.8v-.1zm117.7-11c-15.5 0-22 11.2-22 23.4 0 10.8 7.3 21.1 21.1 21.1 12 0 19.4-5.9 19.4-5.9l-1.7-8.5s-7.5 5.9-15.5 5.9c-7.3 0-11.1-5.3-11.6-12.1h25.6l2.2-2c-.1-6.3-1.3-21.9-17.5-21.9zm-1.1 7.1c4.9 0 6.5 5.4 6.8 9.4h-15.5c1-5.2 3.6-9.4 8.7-9.4zm237.2 14.9c-6.1 0-8.2-3-8.2-6.7s2.1-6.7 8.2-6.7h4.7v13.3h-4.7v.1zm4.6 21.4h12.5c-.9-4.5-1-8.4-1-13.5v-28.6h-15.2c-15.4 0-20.7 6.1-20.7 14 0 5.4 2.4 10 8.9 12.3L695 202.6h13.9l11.2-14.1h3.9v14.1zm-300.4-43.2c-4.3.4-8.5.8-12.8 1.3 1.3 6 1.3 10.7 1.3 17.3v24.7h10.3l14.4-19.2c2-2.6 2.9-4.2 4.4-7.1v26.3h12.5c-.9-5-1-8.4-1-13.5v-28.6h-10.3c-5.1 6.8-10.1 13.5-15.2 20.3-1.6 2.1-2.4 3.6-3.6 6v-27.5zm102.2 8.2c5.7-.2 8.2 1.6 8.2 4.4 0 2.3-1.3 3.8-2.7 4.8h-10.7v-9.1l5.2-.1zm-5.1 16.4h5.8c6.5 0 9.5 1.8 9.5 5.8 0 3.3-2.4 5.6-8.4 5.6h-7V184h.1zm-11.9-23.3c.8 5.5 1 9.4 1 15.1v26.9h17.1c15.7 0 20.7-5.4 20.7-13.3 0-5.3-3.9-8.7-9.3-10.6 4.1-1.8 6.5-4.6 6.5-8 0-6.5-5.8-10.8-18.4-10.5-5.9.1-11.8.2-17.6.4zm84.8 4.2s-5.6-5.6-17-5.6c-14.9 0-23 10.8-23 23 0 10.8 6.9 21.4 20.7 21.4 12.1 0 19.1-6.5 19.1-6.5l-1.7-8.7s-7.1 6.7-15.2 6.7c-7.6 0-11.1-6.7-11.1-13.7 0-7.5 3.5-14.3 11.5-14.3 3.4 0 8 1.3 11.4 5.2l5.3-7.5zm20.4-5.5c-4.3.4-8.5.8-12.8 1.3 1.1 4.8 1.3 9.5 1.3 15.5v26.6H615c-1-4.7-1-8.5-1-13.6v-4h4.6l14.1 17.6h14.4l-18.6-21.7 5.9-8.8c2.3-3.4 4.4-4.5 6.4-4.5.7 0 1.4.1 2.1.2l1.4-7.5c-1.4-.6-3.5-1-5.1-1-5.7 0-10.6 2.1-14.9 8.8l-6.2 9.7h-4v-18.6h-.1zm43.8 13.5s5.4-6.3 12.7-6.3c3.9 0 6.3 2.5 6.3 8.3v1.6c-16.5.5-26.1 7.4-26.1 16.2 0 5.6 5.5 10.9 13.5 10.9 5.1 0 10.4-2.1 14-5.3.8 2.8 3.2 5.2 3.2 5.2l11.7-1.2s-4.7-5-4.7-10v-21.6c0-8.7-8.2-11.5-15.8-11.5-12.5 0-19.4 6.3-19.4 6.3l4.6 7.4zM668 196c-3.7 0-5.5-2.3-5.5-4.6 0-6.3 9.7-7.2 14.3-7.5v8.5c-2 1.9-5.9 3.6-8.8 3.6zm-73.8 33.5s-1.7-1.9-5.3-1.9c-4.6 0-7.1 3.7-7.1 7.9 0 3.7 2.1 7.4 6.4 7.4 3.8 0 5.9-2.2 5.9-2.2l-.5-3s-2.2 2.3-4.7 2.3c-2.4 0-3.4-2.3-3.4-4.7 0-2.6 1.1-4.9 3.6-4.9 1.1 0 2.5.5 3.5 1.8l1.6-2.7zm-23.8-1.9l-4 .4.4 2.9v11.6h3.9l-.3-2.5v-3.6h.9l4.4 6.1h4.5l-5.8-7.5 1.8-3c.7-1.2 1.4-1.5 2-1.5.5 0 1.1.1 1.5.3l-.4-2.8c-.4-.2-1.1-.3-1.6-.3-1.8 0-3.3.7-4.6 3l-1.9 3.3h-.7v-6.4h-.1zm-13.3 2.4c1.5 0 2 1.9 2.1 3.2h-4.8c.3-1.8 1.1-3.2 2.7-3.2zm.3-2.5c-4.8 0-6.8 3.8-6.8 8 0 3.7 2.3 7.3 6.5 7.3 3.7 0 6-2 6-2l-.5-2.9s-2.3 2-4.8 2c-2.3 0-3.4-1.8-3.6-4.2h8l.7-.7c-.1-2.1-.5-7.5-5.5-7.5zm-21.7 5.3c-.2 4.6-.9 7.1-2.2 7.1-.4 0-.9-.1-1.3-.3l.3 2.9c.6.2 1.2.3 1.9.3 3.7 0 4.7-4.9 4.9-10.2l.1-2h3.8v11.9h3.9l-.3-2.5v-12h-11.3l.3 2.5-.1 2.3zm-19.6-4.8l.3 2.5v12h3.9l-.3-2.5v-9.5h5.5v12h3.9l-.4-2.5v-12h-12.9zm-17 7.7l4.2 5.5 3.6-5.2.9-1.7v8.2h3.9l-.3-2.5v-12h-2.6l-5.5 7.9-6.1-7.9h-2.7l.3 2.5v12h3.7l-.3-2.5v-5.8l.9 1.5zm-18.4-.5c0-2.9 1.2-5.1 3.3-5.1 2.1 0 3.3 2.2 3.3 5.1 0 2.9-1.2 5.1-3.3 5.1-2.1 0-3.3-2.3-3.3-5.1zm10.4-.3c0-5.1-2.8-7.3-6.6-7.3-4.9 0-7.6 3.6-7.6 7.9 0 3.6 2.3 7.4 6.6 7.4 4.8-.1 7.6-3.7 7.6-8zm-25.7-7.3l-4 .4.4 2.9v11.6h3.9l-.3-2.5v-3.6h.9l4.4 6.1h4.4l-5.8-7.5 1.8-3c.7-1.2 1.4-1.5 2-1.5.5 0 1.1.1 1.5.3l-.4-2.8c-.4-.2-1.1-.3-1.6-.3-1.8 0-3.3.7-4.6 3l-1.9 3.3h-.7v-6.4zm-32.1 0l-4 .4.4 2.9v11.6h3.2l5.2-7.8.6-1.3v9h3.9l-.3-2.5v-12h-3.2l-5.2 7.8-.6 1.3v-9.4zm2.8-3.3c-1.3 0-2-2.5-2-2.5l-2.6.9s.9 4.1 4.6 4.1c3.6 0 4.6-4.1 4.6-4.1l-2.6-.9s-.7 2.5-2 2.5zm-20.6 10.9c0-2.9 1.2-5.1 3.3-5.1 2.1 0 3.3 2.2 3.3 5.1 0 2.9-1.2 5.1-3.3 5.1-2 0-3.3-2.3-3.3-5.1zm10.5-.3c0-5.1-2.8-7.3-6.6-7.3-4.9 0-7.6 3.6-7.6 7.9 0 3.6 2.3 7.4 6.6 7.4 4.8-.1 7.6-3.7 7.6-8zm-29.1-2.1c-.2 4.6-.9 7.1-2.2 7.1-.4 0-.9-.1-1.3-.3l.3 2.9c.6.2 1.2.3 1.9.3 3.7 0 4.7-4.9 4.9-10.2l.1-2h3.8v11.9h3.9l-.3-2.5v-12h-11.3l.3 2.5-.1 2.3zm-15.8-5.2l-4 .4.4 2.9v11.6h3.2l5.2-7.8.6-1.3v9h3.9l-.3-2.5v-12H387l-5.2 7.8-.6 1.3v-9.4h-.1zm-19.5 6.3h-.6l-1.7-3.3c-1.2-2.4-2.9-3-4.6-3-.5 0-1.1.1-1.6.3l-.4 2.8c.4-.2.9-.3 1.5-.3s1.3.3 2 1.5l1.6 3-5.5 7.5h4.4l4.2-6.1h.7v6.1h3.9l-.3-2.5v-3.6h.7l4.2 6.1h4.4L369 235l1.6-3c.6-1.2 1.4-1.5 2-1.5.5 0 1.1.1 1.5.3l-.4-2.8c-.4-.2-1.1-.3-1.6-.3-1.8 0-3.4.6-4.6 3l-1.7 3.3h-.6v-6h-3.9l.3 2.5v3.4z"/></symbol><symbol viewBox="0 0 12.6 15" id="mapMarker" xmlns="http://www.w3.org/2000/svg"><path d="M6.3 0C2.8 0 0 2.8 0 6.3c0 3.4 5.8 8.4 6.1 8.6 0 .1.1.1.2.1s.1 0 .2-.1c.3-.2 6.1-5.2 6.1-8.6C12.6 2.8 9.8 0 6.3 0zm0 9.2c-1.6 0-2.9-1.3-2.9-2.9s1.3-2.9 2.9-2.9c1.6 0 2.9 1.3 2.9 2.9S7.9 9.2 6.3 9.2z"/></symbol><symbol viewBox="0 0 4.1 6.7" overflow="scroll" id="menu_it-arr" xmlns="http://www.w3.org/2000/svg"><path d="M.4.4l3 3-3 3"/></symbol><symbol viewBox="0 0 14.4 14.4" id="phone" xmlns="http://www.w3.org/2000/svg"><path d="M11.7 14.4c-2.8 0-5.8-1.3-8.1-3.6C1.3 8.4-.1 5.4 0 2.5c.2-.3.4-.5.6-.7C1.4 1 2.3.4 3.3 0h.2c.3 0 .7.2.8.3.4 1 .8 2.3 1.2 3.6 0 .2 0 .7-.2.8L4 5.5c-.1.1-.2.2-.3.4 0 .3.1.6.3.9.5.7 1 1.3 1.7 1.9.6.6 1.3 1.2 1.9 1.6.2.2.5.3.8.3.3 0 .5-.1.6-.3l.8-1.2c-.1 0 .3-.1.6-.1h.1c1.5.3 2.4.6 3.6 1.2.2.1.4.7.3 1-.4 1-1 1.9-1.7 2.6-.2.2-.4.4-.7.6h-.3z"/></symbol><symbol viewBox="0 0 15.4 19.4" id="sheet" xmlns="http://www.w3.org/2000/svg"><path d="M10.1 19.4h-8c-1.2 0-2.1-.9-2.1-2.1V2.1C0 .9.9 0 2.1 0h11.2c1.2 0 2.1.9 2.1 2.1v11.2c0 .1 0 .2-.1.3l-4.8 5.6c-.1.1-.3.2-.4.2zM2.1 1C1.5 1 1 1.5 1 2.1v15.2c0 .6.5 1.1 1.1 1.1h7.8l4.5-5.3v-11c0-.6-.5-1.1-1.1-1.1H2.1zm12.8 12.3z"/><path d="M10.1 19.4c-.3 0-.5-.2-.5-.5v-4.8c0-.7.6-1.3 1.3-1.3h4c.3 0 .5.2.5.5s-.2.5-.5.5h-4c-.1 0-.3.1-.3.3v4.8c0 .3-.2.5-.5.5z"/></symbol><symbol viewBox="0 0 8 4" overflow="scroll" id="slide_arr" xmlns="http://www.w3.org/2000/svg"><path d="M8 0L4 4 0 0z"/></symbol><symbol viewBox="0 0 200.6 262.8" id="slide_n-1" xmlns="http://www.w3.org/2000/svg"><path d="M200.6 175.1c0 24.9-9.4 45.7-28.1 62.5-18.7 16.8-42.6 25.2-71.7 25.2-30.4 0-54.8-9.5-73.2-28.6C9.2 215.1 0 189.5 0 157.3c0-42.9 14.5-78.4 43.5-106.5 29-28 68.3-45 118.1-50.9l4 17.4-18.6 3.3c-14.2 3.9-26.1 9.2-35.6 15.9-9.6 6.7-17.5 14.5-23.7 23.1-6 8.4-10.7 17.8-14.1 28.3-3.4 10.5-6 20.9-7.7 31.1 10.2-9.2 20.3-15.3 30.4-18.5 10-3.2 20.8-4.8 32.3-4.8 20.2 0 37.3 7.4 51.2 22.1 13.9 14.8 20.8 33.8 20.8 57.3zm-65.1 4.8c0-18.5-3.3-33.3-9.8-44.2-6.5-10.9-15.2-16.4-26.1-16.4-7.3 0-13.6 1.2-18.9 3.7-5.3 2.5-10.7 7.6-16.1 15.5 0 .6 0 1.6-.1 3.1s-.1 3.4-.3 5.7c-.1 2.6-.2 5-.3 7.2-.1 2.2-.1 4.1-.1 5.6 0 28.2 3.4 49.7 10.3 64.7s15.7 22.4 26.5 22.4c10.4 0 18.9-5.9 25.3-17.6 6.4-11.7 9.6-28.3 9.6-49.7z"/></symbol><symbol viewBox="0 0 14.6 26.4" id="swiper_arr" xmlns="http://www.w3.org/2000/svg"><path d="M13.2 26.4L0 13.2 13.2 0l1.4 1.4L2.8 13.2 14.6 25z"/></symbol><symbol viewBox="0 0 16.7 26" id="swiper_tip-1" xmlns="http://www.w3.org/2000/svg"><circle cx="8.3" cy="5.5" r="1"/><circle cx="8.3" cy="9.8" r="1"/><circle cx="8.3" cy="14.1" r="1"/><path d="M9.3 25.5H7.4c-3.8 0-6.9-3.1-6.9-6.9V7.4C.5 3.6 3.6.5 7.4.5h1.9c3.8 0 6.9 3.1 6.9 6.9v11.2c0 3.8-3.1 6.9-6.9 6.9z"/></symbol><symbol viewBox="0 0 19.2 19.2" id="swiper_tip-2" xmlns="http://www.w3.org/2000/svg"><path d="M9.8 13.6l-4-4 4-4 .7.7-3.3 3.3 3.3 3.3z"/><path d="M6.5 9.1h7.3v1H6.5z"/><path d="M15.7 19.2H3.5c-1.9 0-3.5-1.6-3.5-3.5V3.5C0 1.6 1.6 0 3.5 0h12.2c1.9 0 3.5 1.6 3.5 3.5v12.2c0 1.9-1.6 3.5-3.5 3.5zM3.5 1C2.1 1 1 2.1 1 3.5v12.2c0 1.4 1.1 2.5 2.5 2.5h12.2c1.4 0 2.5-1.1 2.5-2.5V3.5c0-1.4-1.1-2.5-2.5-2.5H3.5z"/></symbol><symbol viewBox="0 0 22.1 23.7" id="swiper_tip-3" xmlns="http://www.w3.org/2000/svg"><path d="M21.6 17.1v-4.6c0-.7-.7-1.5-1.5-1.5s-1.5.8-1.5 1.5V14v-3.5C18.5 9.8 17.9 9 17 9c-.8 0-1.5.8-1.5 1.5v2.7V9c0-.7-.7-1.5-1.5-1.5s-1.5.8-1.5 1.5v3.8-9.4c0-.7-.7-1.5-1.5-1.5s-1.5.8-1.5 1.5v11.7C9.5 14 7.4 11 7.4 11c-1.3-1.6-4-.1-2.4 2.4l2.2 5.5c2.8 6.1 13 5.9 14.4-1.8zM3.3 5.4L.7 2.9 3.3.4M.7 2.9h5.7M18.4.4L21 2.9l-2.6 2.5M21 2.9h-5.7"/></symbol></svg>